<svg width="127" height="136" viewBox="0 0 127 136" fill="none" xmlns="http://www.w3.org/2000/svg">
<path d="M14.816 123L6.688 113.048V123H2.208V100.664H6.688V110.68L14.816 100.664H20.224L11.008 111.736L20.48 123H14.816ZM39.9068 113.752C39.9068 114.392 39.8641 114.968 39.7788 115.48H26.8188C26.9254 116.76 27.3734 117.763 28.1628 118.488C28.9521 119.213 29.9228 119.576 31.0748 119.576C32.7388 119.576 33.9228 118.861 34.6268 117.432H39.4588C38.9468 119.139 37.9654 120.547 36.5148 121.656C35.0641 122.744 33.2828 123.288 31.1708 123.288C29.4641 123.288 27.9281 122.915 26.5628 122.168C25.2188 121.4 24.1628 120.323 23.3948 118.936C22.6481 117.549 22.2747 115.949 22.2747 114.136C22.2747 112.301 22.6481 110.691 23.3948 109.304C24.1414 107.917 25.1868 106.851 26.5308 106.104C27.8748 105.357 29.4214 104.984 31.1708 104.984C32.8561 104.984 34.3601 105.347 35.6828 106.072C37.0268 106.797 38.0614 107.832 38.7868 109.176C39.5334 110.499 39.9068 112.024 39.9068 113.752ZM35.2668 112.472C35.2454 111.32 34.8294 110.403 34.0188 109.72C33.2081 109.016 32.2161 108.664 31.0428 108.664C29.9334 108.664 28.9948 109.005 28.2268 109.688C27.4801 110.349 27.0214 111.277 26.8508 112.472H35.2668ZM59.6568 113.752C59.6568 114.392 59.6141 114.968 59.5288 115.48H46.5688C46.6754 116.76 47.1234 117.763 47.9128 118.488C48.7021 119.213 49.6728 119.576 50.8248 119.576C52.4888 119.576 53.6728 118.861 54.3768 117.432H59.2088C58.6968 119.139 57.7154 120.547 56.2648 121.656C54.8141 122.744 53.0328 123.288 50.9208 123.288C49.2141 123.288 47.6781 122.915 46.3128 122.168C44.9688 121.4 43.9128 120.323 43.1448 118.936C42.3981 117.549 42.0247 115.949 42.0247 114.136C42.0247 112.301 42.3981 110.691 43.1448 109.304C43.8914 107.917 44.9368 106.851 46.2808 106.104C47.6248 105.357 49.1714 104.984 50.9208 104.984C52.6061 104.984 54.1101 105.347 55.4328 106.072C56.7768 106.797 57.8114 107.832 58.5368 109.176C59.2834 110.499 59.6568 112.024 59.6568 113.752ZM55.0168 112.472C54.9954 111.32 54.5794 110.403 53.7688 109.72C52.9581 109.016 51.9661 108.664 50.7928 108.664C49.6834 108.664 48.7448 109.005 47.9768 109.688C47.2301 110.349 46.7714 111.277 46.6008 112.472H55.0168ZM67.4068 107.832C67.9828 107.021 68.7721 106.349 69.7748 105.816C70.7988 105.261 71.9614 104.984 73.2628 104.984C74.7774 104.984 76.1428 105.357 77.3588 106.104C78.5961 106.851 79.5668 107.917 80.2708 109.304C80.9961 110.669 81.3588 112.259 81.3588 114.072C81.3588 115.885 80.9961 117.496 80.2708 118.904C79.5668 120.291 78.5961 121.368 77.3588 122.136C76.1428 122.904 74.7774 123.288 73.2628 123.288C71.9614 123.288 70.8094 123.021 69.8068 122.488C68.8254 121.955 68.0254 121.283 67.4068 120.472V131.448H62.9268V105.272H67.4068V107.832ZM76.7828 114.072C76.7828 113.005 76.5588 112.088 76.1108 111.32C75.6841 110.531 75.1081 109.933 74.3828 109.528C73.6788 109.123 72.9108 108.92 72.0788 108.92C71.2681 108.92 70.5001 109.133 69.7748 109.56C69.0708 109.965 68.4948 110.563 68.0468 111.352C67.6201 112.141 67.4068 113.069 67.4068 114.136C67.4068 115.203 67.6201 116.131 68.0468 116.92C68.4948 117.709 69.0708 118.317 69.7748 118.744C70.5001 119.149 71.2681 119.352 72.0788 119.352C72.9108 119.352 73.6788 119.139 74.3828 118.712C75.1081 118.285 75.6841 117.677 76.1108 116.888C76.5588 116.099 76.7828 115.16 76.7828 114.072ZM89.0303 100.664V114.488C89.0303 116.003 89.4249 117.165 90.2143 117.976C91.0036 118.765 92.1129 119.16 93.5423 119.16C94.9929 119.16 96.1129 118.765 96.9023 117.976C97.6916 117.165 98.0863 116.003 98.0863 114.488V100.664H102.598V114.456C102.598 116.355 102.182 117.965 101.35 119.288C100.54 120.589 99.4409 121.571 98.0543 122.232C96.6889 122.893 95.1636 123.224 93.4783 123.224C91.8143 123.224 90.2996 122.893 88.9343 122.232C87.5903 121.571 86.5236 120.589 85.7343 119.288C84.9449 117.965 84.5503 116.355 84.5503 114.456V100.664H89.0303ZM111.407 107.832C111.983 107.021 112.772 106.349 113.775 105.816C114.799 105.261 115.961 104.984 117.263 104.984C118.777 104.984 120.143 105.357 121.359 106.104C122.596 106.851 123.567 107.917 124.271 109.304C124.996 110.669 125.359 112.259 125.359 114.072C125.359 115.885 124.996 117.496 124.271 118.904C123.567 120.291 122.596 121.368 121.359 122.136C120.143 122.904 118.777 123.288 117.263 123.288C115.961 123.288 114.809 123.021 113.807 122.488C112.825 121.955 112.025 121.283 111.407 120.472V131.448H106.927V105.272H111.407V107.832ZM120.783 114.072C120.783 113.005 120.559 112.088 120.111 111.32C119.684 110.531 119.108 109.933 118.383 109.528C117.679 109.123 116.911 108.92 116.079 108.92C115.268 108.92 114.5 109.133 113.775 109.56C113.071 109.965 112.495 110.563 112.047 111.352C111.62 112.141 111.407 113.069 111.407 114.136C111.407 115.203 111.62 116.131 112.047 116.92C112.495 117.709 113.071 118.317 113.775 118.744C114.5 119.149 115.268 119.352 116.079 119.352C116.911 119.352 117.679 119.139 118.383 118.712C119.108 118.285 119.684 117.677 120.111 116.888C120.559 116.099 120.783 115.16 120.783 114.072Z" fill="white"/>
<path d="M62.077 5.18871C62.2401 5.03774 62.9605 5 63.3003 5H64.9314L97.9611 22.7383C99.5922 23.4931 100 25.0657 100 25.7576V61.6116C99.8369 62.9703 98.5728 63.939 97.9611 64.2535L71.2519 78.5951C71.0888 78.4442 70.5043 75.5129 70.2325 74.0662C69.8247 71.9904 71.4558 70.6695 71.4558 70.4808C71.4558 70.3298 84.3687 62.9955 90.8251 59.3472C91.9669 58.7433 92.2523 57.3343 92.2523 56.7053V30.4752C92.4154 28.6637 91.7766 28.714 91.4367 28.9656L65.5431 42.5524C64.0751 43.6091 63.7081 45.2572 63.7081 45.9491V81.9918C61.2615 82.1428 58.475 80.1677 57.3876 79.1612C56.2458 77.8026 55.9604 75.3775 55.9604 74.3349V41.2314C55.9604 40.0237 57.4556 38.7154 58.2032 38.2122L84.0968 24.4367C83.9337 23.9838 81.3104 22.1093 80.0191 21.2287C79.2035 20.6248 77.2326 21.1029 76.3491 21.4174L51.8827 34.438C50.0884 35.0419 49.368 36.7025 49.2321 37.4573V73.8775C46.4593 73.8775 43.8631 71.9904 42.9116 71.0469C42.0961 70.443 41.7563 68.0276 41.6883 66.8954V33.6832C41.5252 32.1736 42.7077 31.0414 43.3194 30.6639L69.6208 16.6997L65.747 13.4917C64.4421 12.7369 62.7566 13.1772 62.077 13.4917L37.6106 26.5124C35.6532 27.2672 34.8921 29.28 34.7561 30.1921V66.518C33.4513 66.367 30.4066 64.9454 29.0473 64.2535C27.2531 63.0458 26.9405 60.8568 27.0084 59.9133V25.9463C27.0084 24.5876 27.9599 23.6189 28.4356 23.3044C39.5815 17.3288 61.9139 5.33967 62.077 5.18871Z" fill="white"/>
<path d="M71 47.803C71 47.1756 71.5333 46.4959 71.8 46.2345L85.6 38.3109L86 38C86 42.9668 85.96 53.175 85.8 54.2729C85.64 55.3709 84.9333 56.0375 84.6 56.2335L71 64V47.803Z" fill="white"/>
</svg>
