<svg width="88" height="88" viewBox="0 0 88 88" fill="none" xmlns="http://www.w3.org/2000/svg">
<path d="M42.077 5.18871C42.2401 5.03774 42.9605 5 43.3003 5H44.9314L77.9611 22.7383C79.5922 23.4931 80 25.0657 80 25.7576V61.6116C79.8369 62.9703 78.5728 63.939 77.9611 64.2535L51.2519 78.5951C51.0888 78.4442 50.5043 75.5129 50.2325 74.0662C49.8247 71.9904 51.4558 70.6695 51.4558 70.4808C51.4558 70.3298 64.3687 62.9955 70.8251 59.3472C71.9669 58.7433 72.2523 57.3343 72.2523 56.7053V30.4752C72.4154 28.6637 71.7766 28.714 71.4367 28.9656L45.5431 42.5524C44.0751 43.6091 43.7081 45.2572 43.7081 45.9491V81.9918C41.2615 82.1428 38.475 80.1677 37.3876 79.1612C36.2458 77.8026 35.9604 75.3775 35.9604 74.3349V41.2314C35.9604 40.0237 37.4556 38.7154 38.2032 38.2122L64.0968 24.4367C63.9337 23.9838 61.3104 22.1093 60.0191 21.2287C59.2035 20.6248 57.2326 21.1029 56.3491 21.4174L31.8827 34.438C30.0884 35.0419 29.368 36.7025 29.2321 37.4573V73.8775C26.4593 73.8775 23.8631 71.9904 22.9116 71.0469C22.0961 70.443 21.7563 68.0276 21.6883 66.8954V33.6832C21.5252 32.1736 22.7077 31.0414 23.3194 30.6639L49.6208 16.6997L45.747 13.4917C44.4421 12.7369 42.7566 13.1772 42.077 13.4917L17.6106 26.5124C15.6532 27.2672 14.8921 29.28 14.7561 30.1921V66.518C13.4513 66.367 10.4066 64.9454 9.04731 64.2535C7.2531 63.0458 6.94048 60.8568 7.00844 59.9133V25.9463C7.00844 24.5876 7.95991 23.6189 8.43565 23.3044C19.5815 17.3288 41.9139 5.33967 42.077 5.18871Z" fill="white"/>
<path d="M51 47.803C51 47.1756 51.5333 46.4959 51.8 46.2345L65.6 38.3109L66 38C66 42.9668 65.96 53.175 65.8 54.2729C65.64 55.3709 64.9333 56.0375 64.6 56.2335L51 64V47.803Z" fill="white"/>
</svg>
