<svg width="237" height="217" viewBox="0 0 237 217" fill="none" xmlns="http://www.w3.org/2000/svg">
<path d="M205 102.5C205 159.109 159.109 205 102.5 205C45.8908 205 0 159.109 0 102.5C0 45.8908 45.8908 0 102.5 0C159.109 0 205 45.8908 205 102.5ZM4.87232 102.5C4.87232 156.418 48.5817 200.128 102.5 200.128C156.418 200.128 200.128 156.418 200.128 102.5C200.128 48.5817 156.418 4.87232 102.5 4.87232C48.5817 4.87232 4.87232 48.5817 4.87232 102.5Z" fill="url(#paint0_linear_3_167)"/>
<path d="M237 79C237 104.957 215.957 126 190 126C164.043 126 143 104.957 143 79C143 53.0426 164.043 32 190 32C215.957 32 237 53.0426 237 79ZM145.234 79C145.234 103.724 165.276 123.766 190 123.766C214.724 123.766 234.766 103.724 234.766 79C234.766 54.2765 214.724 34.2341 190 34.2341C165.276 34.2341 145.234 54.2765 145.234 79Z" fill="url(#paint1_linear_3_167)"/>
<circle cx="101" cy="202" r="15" fill="url(#paint2_linear_3_167)"/>
<ellipse cx="143" cy="192.5" rx="7" ry="7.5" fill="url(#paint3_linear_3_167)"/>
<defs>
<linearGradient id="paint0_linear_3_167" x1="102.5" y1="0" x2="102.5" y2="205" gradientUnits="userSpaceOnUse">
<stop stop-color="#7871F8"/>
<stop offset="1" stop-color="#D6A5FD"/>
</linearGradient>
<linearGradient id="paint1_linear_3_167" x1="190" y1="32" x2="190" y2="126" gradientUnits="userSpaceOnUse">
<stop stop-color="#7871F8"/>
<stop offset="1" stop-color="#D6A5FD"/>
</linearGradient>
<linearGradient id="paint2_linear_3_167" x1="101" y1="187" x2="101" y2="217" gradientUnits="userSpaceOnUse">
<stop stop-color="#7871F8"/>
<stop offset="1" stop-color="#D6A5FD"/>
</linearGradient>
<linearGradient id="paint3_linear_3_167" x1="143" y1="185" x2="143" y2="200" gradientUnits="userSpaceOnUse">
<stop stop-color="#7871F8"/>
<stop offset="1" stop-color="#D6A5FD"/>
</linearGradient>
</defs>
</svg>
